# xmcd
#
# Track frame offsets: 
#        150
#        26473
#        47368
#        68550
#        85580
#        119518
#        151018
#
# Disc length: 2494 seconds
#
# Revision: 2
# Processed by: cddbd v1.5.2PL0 Copyright (c) Steve Scherf et al.
# Submitted via: ExactAudioCopy v1.1
#
DISCID=4309bc07
DTITLE=Hank Mobley - The Jazz Message Of Hank Mobley
DYEAR=1956
DGENRE=Jazz
TTITLE0=There'll Never Be Another You (mono)
TTITLE1=Cattin' (mono)
TTITLE2=Madeline (mono)
TTITLE3=When I Fall In Love (mono)
TTITLE4=Budo (mono)
TTITLE5=I Married An Angel (mono)
TTITLE6=The Jazz Message (Freedom For All) (mono)
EXTD=YEAR: 1956
EXTT0=
EXTT1=
EXTT2=
EXTT3=
EXTT4=
EXTT5=
EXTT6=
PLAYORDER=
